<?xml version="1.0" encoding="UTF-8"?>
<svg xmlns="http://www.w3.org/2000/svg" style="display: none;">
  <defs>
    <!-- Email Icon -->
    <symbol id="icon-email" viewBox="0 0 24 24">
      <path fill="currentColor" d="M20 4H4c-1.1 0-1.99.9-1.99 2L2 18c0 1.1.9 2 2 2h16c1.1 0 2-.9 2-2V6c0-1.1-.9-2-2-2zm0 4l-8 5-8-5V6l8 5 8-5v2z"/>
    </symbol>
    
    <!-- Slack Icon -->
    <symbol id="icon-slack" viewBox="0 0 24 24">
      <path fill="currentColor" d="M6 15a2 2 0 0 1-2 2 2 2 0 0 1-2-2 2 2 0 0 1 2-2h2v2m1 0a2 2 0 0 1 2-2 2 2 0 0 1 2 2v5a2 2 0 0 1-2 2 2 2 0 0 1-2-2v-5m2-8a2 2 0 0 1-2-2 2 2 0 0 1 2-2 2 2 0 0 1 2 2v2H9m0 1a2 2 0 0 1 2 2 2 2 0 0 1-2 2H4a2 2 0 0 1-2-2 2 2 0 0 1 2-2h5m8 2a2 2 0 0 1 2-2 2 2 0 0 1 2 2 2 2 0 0 1-2 2h-2v-2m-1 0a2 2 0 0 1-2 2 2 2 0 0 1-2-2V4a2 2 0 0 1 2-2 2 2 0 0 1 2 2v5m-2 8a2 2 0 0 1 2 2 2 2 0 0 1-2 2 2 2 0 0 1-2-2v-2h2m0-1a2 2 0 0 1-2-2 2 2 0 0 1 2-2h5a2 2 0 0 1 2 2 2 2 0 0 1-2 2h-5z"/>
    </symbol>
    
    <!-- Megaphone/Announcement Icon -->
    <symbol id="icon-megaphone" viewBox="0 0 24 24">
      <path fill="currentColor" d="M12 8c1.1 0 2-.9 2-2s-.9-2-2-2-2 .9-2 2 .9 2 2 2zm0 2c-1.1 0-2 .9-2 2s.9 2 2 2 2-.9 2-2-.9-2-2-2zm0 6c-1.1 0-2 .9-2 2s.9 2 2 2 2-.9 2-2-.9-2-2-2zM6 8c1.1 0 2-.9 2-2s-.9-2-2-2-2 .9-2 2 .9 2 2 2zm0 2c-1.1 0-2 .9-2 2s.9 2 2 2 2-.9 2-2-.9-2-2-2zm0 6c-1.1 0-2 .9-2 2s.9 2 2 2 2-.9 2-2-.9-2-2-2zm12-8c1.1 0 2-.9 2-2s-.9-2-2-2-2 .9-2 2 .9 2 2 2zm0 2c-1.1 0-2 .9-2 2s.9 2 2 2 2-.9 2-2-.9-2-2-2zm0 6c-1.1 0-2 .9-2 2s.9 2 2 2 2-.9 2-2-.9-2-2-2z"/>
    </symbol>
    
    <!-- Users/Team Icon -->
    <symbol id="icon-users" viewBox="0 0 24 24">
      <path fill="currentColor" d="M16 11c1.66 0 2.99-1.34 2.99-3S17.66 5 16 5c-1.66 0-3 1.34-3 3s1.34 3 3 3zm-8 0c1.66 0 2.99-1.34 2.99-3S9.66 5 8 5C6.34 5 5 6.34 5 8s1.34 3 3 3zm0 2c-2.33 0-7 1.17-7 3.5V19h14v-2.5c0-2.33-4.67-3.5-7-3.5zm8 0c-.29 0-.62.02-.97.05 1.16.84 1.97 1.97 1.97 3.45V19h6v-2.5c0-2.33-4.67-3.5-7-3.5z"/>
    </symbol>
    
    <!-- Bell/Notification Icon -->
    <symbol id="icon-bell" viewBox="0 0 24 24">
      <path fill="currentColor" d="M12 22c1.1 0 2-.9 2-2h-4c0 1.1.9 2 2 2zm6-6v-5c0-3.07-1.63-5.64-4.5-6.32V4c0-.83-.67-1.5-1.5-1.5s-1.5.67-1.5 1.5v.68C7.64 5.36 6 7.92 6 11v5l-2 2v1h16v-1l-2-2zm-2 1H8v-6c0-2.48 1.51-4.5 4-4.5s4 2.02 4 4.5v6z"/>
    </symbol>
    
    <!-- Settings/Gear Icon -->
    <symbol id="icon-settings" viewBox="0 0 24 24">
      <path fill="currentColor" d="M19.14 12.94c.04-.3.06-.61.06-.94 0-.32-.02-.64-.07-.94l2.03-1.58c.18-.14.23-.41.12-.61l-1.92-3.32c-.12-.22-.37-.29-.59-.22l-2.39.96c-.5-.38-1.03-.7-1.62-.94l-.36-2.54c-.04-.24-.24-.41-.48-.41h-3.84c-.24 0-.43.17-.47.41l-.36 2.54c-.59.24-1.13.57-1.62.94l-2.39-.96c-.22-.08-.47 0-.59.22L2.74 8.87c-.12.21-.08.47.12.61l2.03 1.58c-.05.3-.09.63-.09.94s.02.64.07.94l-2.03 1.58c-.18.14-.23.41-.12.61l1.92 3.32c.12.22.37.29.59.22l2.39-.96c.5.38 1.03.7 1.62.94l.36 2.54c.05.24.24.41.48.41h3.84c.24 0 .44-.17.47-.41l.36-2.54c.59-.24 1.13-.56 1.62-.94l2.39.96c.22.08.47 0 .59-.22l1.92-3.32c.12-.22.07-.47-.12-.61l-2.01-1.58zM12 15.6c-1.98 0-3.6-1.62-3.6-3.6s1.62-3.6 3.6-3.6 3.6 1.62 3.6 3.6-1.62 3.6-3.6 3.6z"/>
    </symbol>
    
    <!-- Search Icon -->
    <symbol id="icon-search" viewBox="0 0 24 24">
      <path fill="currentColor" d="M15.5 14h-.79l-.28-.27C15.41 12.59 16 11.11 16 9.5 16 5.91 13.09 3 9.5 3S3 5.91 3 9.5 5.91 16 9.5 16c1.61 0 3.09-.59 4.23-1.57l.27.28v.79l5 4.99L20.49 19l-4.99-5zm-6 0C7.01 14 5 11.99 5 9.5S7.01 5 9.5 5 14 7.01 14 9.5 11.99 14 9.5 14z"/>
    </symbol>
    
    <!-- Calendar Icon -->
    <symbol id="icon-calendar" viewBox="0 0 24 24">
      <path fill="currentColor" d="M20 3h-1V1h-2v2H7V1H5v2H4c-1.1 0-2 .9-2 2v16c0 1.1.9 2 2 2h16c1.1 0 2-.9 2-2V5c0-1.1-.9-2-2-2zm0 18H4V8h16v13z"/>
    </symbol>
    
    <!-- Check/Success Icon -->
    <symbol id="icon-check" viewBox="0 0 24 24">
      <path fill="currentColor" d="M9 16.17L4.83 12l-1.42 1.41L9 19 21 7l-1.41-1.41z"/>
    </symbol>
    
    <!-- Close/X Icon -->
    <symbol id="icon-close" viewBox="0 0 24 24">
      <path fill="currentColor" d="M19 6.41L17.59 5 12 10.59 6.41 5 5 6.41 10.59 12 5 17.59 6.41 19 12 13.41 17.59 19 19 17.59 13.41 12z"/>
    </symbol>
    
    <!-- Clock/Pending Icon -->
    <symbol id="icon-clock" viewBox="0 0 24 24">
      <path fill="currentColor" d="M11.99 2C6.47 2 2 6.48 2 12s4.47 10 9.99 10C17.52 22 22 17.52 22 12S17.52 2 11.99 2zM12 20c-4.42 0-8-3.58-8-8s3.58-8 8-8 8 3.58 8 8-3.58 8-8 8zm.5-13H11v6l5.25 3.15.75-1.23-4.5-2.67z"/>
    </symbol>
    
    <!-- Edit/Pencil Icon -->
    <symbol id="icon-edit" viewBox="0 0 24 24">
      <path fill="currentColor" d="M3 17.25V21h3.75L17.81 9.94l-3.75-3.75L3 17.25zM20.71 7.04c.39-.39.39-1.02 0-1.41l-2.34-2.34c-.39-.39-1.02-.39-1.41 0l-1.83 1.83 3.75 3.75 1.83-1.83z"/>
    </symbol>
    
    <!-- Delete/Trash Icon -->
    <symbol id="icon-trash" viewBox="0 0 24 24">
      <path fill="currentColor" d="M6 19c0 1.1.9 2 2 2h8c1.1 0 2-.9 2-2V7H6v12zM19 4h-3.5l-1-1h-5l-1 1H5v2h14V4z"/>
    </symbol>
    
    <!-- Plus/Add Icon -->
    <symbol id="icon-plus" viewBox="0 0 24 24">
      <path fill="currentColor" d="M19 13h-6v6h-2v-6H5v-2h6V5h2v6h6v2z"/>
    </symbol>
    
    <!-- Menu/Hamburger Icon -->
    <symbol id="icon-menu" viewBox="0 0 24 24">
      <path fill="currentColor" d="M3 18h18v-2H3v2zm0-5h18v-2H3v2zm0-7v2h18V6H3z"/>
    </symbol>
    
    <!-- Home Icon -->
    <symbol id="icon-home" viewBox="0 0 24 24">
      <path fill="currentColor" d="M10 20v-6h4v6h5v-8h3L12 3 2 12h3v8z"/>
    </symbol>
    
    <!-- Arrow Right Icon -->
    <symbol id="icon-arrow-right" viewBox="0 0 24 24">
      <path fill="currentColor" d="M12 4l-1.41 1.41L16.17 11H4v2h12.17l-5.58 5.59L12 20l8-8z"/>
    </symbol>
    
    <!-- Arrow Left Icon -->
    <symbol id="icon-arrow-left" viewBox="0 0 24 24">
      <path fill="currentColor" d="M20 11H7.83l5.59-5.59L12 4l-8 8 8 8 1.41-1.41L7.83 13H20v-2z"/>
    </symbol>
    
    <!-- Filter Icon -->
    <symbol id="icon-filter" viewBox="0 0 24 24">
      <path fill="currentColor" d="M10 18h4v-2h-4v2zM3 6v2h18V6H3zm3 7h12v-2H6v2z"/>
    </symbol>
    
    <!-- Download Icon -->
    <symbol id="icon-download" viewBox="0 0 24 24">
      <path fill="currentColor" d="M19 9h-4V3H9v6H5l7 7 7-7zM5 18v2h14v-2H5z"/>
    </symbol>
    
    <!-- Upload Icon -->
    <symbol id="icon-upload" viewBox="0 0 24 24">
      <path fill="currentColor" d="M9 16h6v-6h4l-7-7-7 7h4zm-4 2h14v2H5z"/>
    </symbol>
    
    <!-- Star Icon -->
    <symbol id="icon-star" viewBox="0 0 24 24">
      <path fill="currentColor" d="M12 17.27L18.18 21l-1.64-7.03L22 9.24l-7.19-.61L12 2 9.19 8.63 2 9.24l5.46 4.73L5.82 21z"/>
    </symbol>
    
    <!-- Info Icon -->
    <symbol id="icon-info" viewBox="0 0 24 24">
      <path fill="currentColor" d="M12 2C6.48 2 2 6.48 2 12s4.48 10 10 10 10-4.48 10-10S17.52 2 12 2zm1 15h-2v-6h2v6zm0-8h-2V7h2v2z"/>
    </symbol>
    
    <!-- Warning Icon -->
    <symbol id="icon-warning" viewBox="0 0 24 24">
      <path fill="currentColor" d="M1 21h22L12 2 1 21zm12-3h-2v-2h2v2zm0-4h-2v-4h2v4z"/>
    </symbol>
    
    <!-- Eye/View Icon -->
    <symbol id="icon-eye" viewBox="0 0 24 24">
      <path fill="currentColor" d="M12 4.5C7 4.5 2.73 7.61 1 12c1.73 4.39 6 7.5 11 7.5s9.27-3.11 11-7.5c-1.73-4.39-6-7.5-11-7.5zM12 17c-2.76 0-5-2.24-5-5s2.24-5 5-5 5 2.24 5 5-2.24 5-5 5zm0-8c-1.66 0-3 1.34-3 3s1.34 3 3 3 3-1.34 3-3-1.34-3-3-3z"/>
    </symbol>
    
    <!-- Document Icon -->
    <symbol id="icon-document" viewBox="0 0 24 24">
      <path fill="currentColor" d="M14 2H6c-1.1 0-1.99.9-1.99 2L4 20c0 1.1.89 2 1.99 2H18c1.1 0 2-.9 2-2V8l-6-6zm2 16H8v-2h8v2zm0-4H8v-2h8v2zm-3-5V3.5L18.5 9H13z"/>
    </symbol>
    
    <!-- Copy Icon -->
    <symbol id="icon-copy" viewBox="0 0 24 24">
      <path fill="currentColor" d="M16 1H4c-1.1 0-2 .9-2 2v14h2V3h12V1zm3 4H8c-1.1 0-2 .9-2 2v14c0 1.1.9 2 2 2h11c1.1 0 2-.9 2-2V7c0-1.1-.9-2-2-2zm0 16H8V7h11v14z"/>
    </symbol>
  </defs>
</svg>
